<mxfile host="app.diagrams.net" modified="2024-07-12T03:59:29.640Z" agent="Mozilla/5.0 (Macintosh; Intel Mac OS X 10_15_7) AppleWebKit/537.36 (KHTML, like Gecko) Chrome/126.0.0.0 Safari/537.36" etag="38uIoaRyZs1uVDXgoQjz" version="24.6.4" type="github">
  <diagram name="第 1 页" id="cKjmFq1ro7v9W7NVSlEp">
    <mxGraphModel dx="1434" dy="761" grid="1" gridSize="10" guides="1" tooltips="1" connect="1" arrows="1" fold="1" page="1" pageScale="1" pageWidth="827" pageHeight="1169" math="0" shadow="0">
      <root>
        <mxCell id="0" />
        <mxCell id="1" parent="0" />
        <mxCell id="_3XOcMyE5nI33qXO2iN1-11" value="" style="edgeStyle=orthogonalEdgeStyle;rounded=0;orthogonalLoop=1;jettySize=auto;html=1;" edge="1" parent="1" source="_3XOcMyE5nI33qXO2iN1-1" target="_3XOcMyE5nI33qXO2iN1-10">
          <mxGeometry relative="1" as="geometry" />
        </mxCell>
        <mxCell id="_3XOcMyE5nI33qXO2iN1-1" value="clickup" style="ellipse;whiteSpace=wrap;html=1;" vertex="1" parent="1">
          <mxGeometry x="354" y="260" width="120" height="80" as="geometry" />
        </mxCell>
        <mxCell id="_3XOcMyE5nI33qXO2iN1-4" value="當事件有前後順序&lt;div&gt;可以提供標示&lt;/div&gt;&lt;div&gt;必須前者先完成&lt;/div&gt;&lt;div&gt;後者才能進行&lt;/div&gt;" style="whiteSpace=wrap;html=1;glass=0;shadow=0;rounded=1;" vertex="1" parent="1">
          <mxGeometry x="1460" y="525" width="120" height="60" as="geometry" />
        </mxCell>
        <mxCell id="_3XOcMyE5nI33qXO2iN1-9" value="" style="edgeStyle=orthogonalEdgeStyle;rounded=0;orthogonalLoop=1;jettySize=auto;html=1;" edge="1" parent="1" source="_3XOcMyE5nI33qXO2iN1-6" target="_3XOcMyE5nI33qXO2iN1-8">
          <mxGeometry relative="1" as="geometry" />
        </mxCell>
        <mxCell id="_3XOcMyE5nI33qXO2iN1-6" value="Floder&lt;div&gt;∞&lt;br&gt;&lt;/div&gt;" style="whiteSpace=wrap;html=1;" vertex="1" parent="1">
          <mxGeometry x="740" y="270" width="120" height="60" as="geometry" />
        </mxCell>
        <mxCell id="_3XOcMyE5nI33qXO2iN1-17" value="" style="edgeStyle=orthogonalEdgeStyle;rounded=0;orthogonalLoop=1;jettySize=auto;html=1;" edge="1" parent="1" source="_3XOcMyE5nI33qXO2iN1-8" target="_3XOcMyE5nI33qXO2iN1-15">
          <mxGeometry relative="1" as="geometry" />
        </mxCell>
        <mxCell id="_3XOcMyE5nI33qXO2iN1-20" value="" style="edgeStyle=orthogonalEdgeStyle;rounded=0;orthogonalLoop=1;jettySize=auto;html=1;" edge="1" parent="1" source="_3XOcMyE5nI33qXO2iN1-8" target="_3XOcMyE5nI33qXO2iN1-19">
          <mxGeometry relative="1" as="geometry" />
        </mxCell>
        <mxCell id="_3XOcMyE5nI33qXO2iN1-8" value="List&lt;div&gt;∞&lt;br&gt;&lt;/div&gt;" style="whiteSpace=wrap;html=1;" vertex="1" parent="1">
          <mxGeometry x="940" y="270" width="120" height="60" as="geometry" />
        </mxCell>
        <mxCell id="_3XOcMyE5nI33qXO2iN1-12" value="" style="edgeStyle=orthogonalEdgeStyle;rounded=0;orthogonalLoop=1;jettySize=auto;html=1;" edge="1" parent="1" source="_3XOcMyE5nI33qXO2iN1-10" target="_3XOcMyE5nI33qXO2iN1-6">
          <mxGeometry relative="1" as="geometry" />
        </mxCell>
        <mxCell id="_3XOcMyE5nI33qXO2iN1-10" value="Space&lt;div&gt;*5&lt;/div&gt;" style="whiteSpace=wrap;html=1;" vertex="1" parent="1">
          <mxGeometry x="554" y="270" width="120" height="60" as="geometry" />
        </mxCell>
        <mxCell id="_3XOcMyE5nI33qXO2iN1-13" value="Time estimate" style="whiteSpace=wrap;html=1;rounded=1;" vertex="1" parent="1">
          <mxGeometry x="1290" y="400" width="120" height="60" as="geometry" />
        </mxCell>
        <mxCell id="_3XOcMyE5nI33qXO2iN1-24" style="edgeStyle=orthogonalEdgeStyle;rounded=0;orthogonalLoop=1;jettySize=auto;html=1;exitX=0.5;exitY=1;exitDx=0;exitDy=0;entryX=0.5;entryY=1;entryDx=0;entryDy=0;curved=1;endArrow=none;endFill=0;" edge="1" parent="1" source="_3XOcMyE5nI33qXO2iN1-15" target="_3XOcMyE5nI33qXO2iN1-13">
          <mxGeometry relative="1" as="geometry">
            <Array as="points">
              <mxPoint x="1000" y="510" />
              <mxPoint x="1350" y="510" />
            </Array>
          </mxGeometry>
        </mxCell>
        <mxCell id="_3XOcMyE5nI33qXO2iN1-15" value="可新增顯示欄位" style="whiteSpace=wrap;html=1;rounded=1;" vertex="1" parent="1">
          <mxGeometry x="940" y="400" width="120" height="60" as="geometry" />
        </mxCell>
        <mxCell id="_3XOcMyE5nI33qXO2iN1-22" value="" style="edgeStyle=orthogonalEdgeStyle;rounded=0;orthogonalLoop=1;jettySize=auto;html=1;" edge="1" parent="1" source="_3XOcMyE5nI33qXO2iN1-19" target="_3XOcMyE5nI33qXO2iN1-21">
          <mxGeometry relative="1" as="geometry" />
        </mxCell>
        <mxCell id="_3XOcMyE5nI33qXO2iN1-23" style="edgeStyle=orthogonalEdgeStyle;rounded=0;orthogonalLoop=1;jettySize=auto;html=1;exitX=1;exitY=0.5;exitDx=0;exitDy=0;entryX=0.5;entryY=0;entryDx=0;entryDy=0;" edge="1" parent="1" source="_3XOcMyE5nI33qXO2iN1-19" target="_3XOcMyE5nI33qXO2iN1-13">
          <mxGeometry relative="1" as="geometry" />
        </mxCell>
        <mxCell id="_3XOcMyE5nI33qXO2iN1-26" value="" style="edgeStyle=orthogonalEdgeStyle;rounded=0;orthogonalLoop=1;jettySize=auto;html=1;" edge="1" parent="1" source="_3XOcMyE5nI33qXO2iN1-19" target="_3XOcMyE5nI33qXO2iN1-25">
          <mxGeometry relative="1" as="geometry" />
        </mxCell>
        <mxCell id="_3XOcMyE5nI33qXO2iN1-19" value="Task" style="whiteSpace=wrap;html=1;" vertex="1" parent="1">
          <mxGeometry x="1140" y="270" width="120" height="60" as="geometry" />
        </mxCell>
        <mxCell id="_3XOcMyE5nI33qXO2iN1-21" value="description" style="whiteSpace=wrap;html=1;rounded=1;" vertex="1" parent="1">
          <mxGeometry x="1140" y="400" width="120" height="60" as="geometry" />
        </mxCell>
        <mxCell id="_3XOcMyE5nI33qXO2iN1-27" value="" style="edgeStyle=orthogonalEdgeStyle;rounded=0;orthogonalLoop=1;jettySize=auto;html=1;" edge="1" parent="1" source="_3XOcMyE5nI33qXO2iN1-25" target="_3XOcMyE5nI33qXO2iN1-4">
          <mxGeometry relative="1" as="geometry" />
        </mxCell>
        <mxCell id="_3XOcMyE5nI33qXO2iN1-25" value="&lt;div&gt;&lt;span style=&quot;background-color: initial;&quot;&gt;dependency&lt;/span&gt;&lt;br&gt;&lt;/div&gt;" style="whiteSpace=wrap;html=1;rounded=1;" vertex="1" parent="1">
          <mxGeometry x="1460" y="400" width="120" height="60" as="geometry" />
        </mxCell>
      </root>
    </mxGraphModel>
  </diagram>
</mxfile>
